# xmcd CD database file
#
# Track frame offsets:
#	150
#	16197
#	36835
#	54605
#	76594
#	90703
#	106347
#	128013
#	151987
#	168442
#	187223
#	206745
#	222891
#	237536
#	255908
#	268685
#	285101
#
# Disc length: 4037 seconds
#
# Revision: 0
# Processed by: cddbd v1.5.1PL0 Copyright (c) Steve Scherf et al.
# Submitted via: CDex 1.50
#
DISCID=e00fc311
DTITLE=Ruth May - Let's Go Back
DYEAR=2005
DGENRE=Country
TTITLE0=Ruth May =Honey I'm Home
TTITLE1=Ruth May =From This Moment
TTITLE2=Ruth May =Angels
TTITLE3=Ruth May =Chicadida
TTITLE4=Ruth May =Don't Know Why
TTITLE5=Ruth May =Independance Day
TTITLE6=Ruth May =Stop Your Fussin'
TTITLE7=Ruth May =Travellin' Soldier
TTITLE8=Ruth May =White Flag
TTITLE9=Ruth May =Talk To Me
TTITLE10=Ruth May =Half Breed/Gypsys Tramps and Thieves/Dark Lady
TTITLE11=Ruth May =Red Neck Woman
TTITLE12=Ruth May =Don't Stop
TTITLE13=Ruth May =I'm Gonna Getcha
TTITLE14=Ruth May =You Don't Have To Say You Love Me
TTITLE15=Ruth May =I Feel Like A Woman
TTITLE16=Ruth May =Up Where We Belong
EXTD=YEAR: 2005
EXTT0=
EXTT1=
EXTT2=
EXTT3=
EXTT4=
EXTT5=
EXTT6=
EXTT7=
EXTT8=
EXTT9=
EXTT10=
EXTT11=
EXTT12=
EXTT13=
EXTT14=
EXTT15=
EXTT16=
PLAYORDER=
